<?xml version="1.0" encoding="utf-8"?>
<svg id="Layer_1" xmlns="http://www.w3.org/2000/svg" viewBox="0 0 779.67 164.58" xmlns:bx="https://boxy-svg.com" width="779.67px" height="164.58px"><defs><style>
      .cls-1, .cls-2 {
        fill: #fff;
      }

      .cls-2 {
        font-family: Montserrat-Bold, Montserrat;
        font-size: 112.08px;
        font-variation-settings: 'wght' 700;
        font-weight: 700;
      }

      .cls-3 {
        letter-spacing: -.02em;
      }

      .cls-4 {
        letter-spacing: 0em;
      }

      .cls-5 {
        letter-spacing: -.01em;
      }
    </style><style bx:fonts="Montserrat">@import url(https://fonts.googleapis.com/css2?family=Montserrat%3Aital%2Cwght%400%2C100..900%3B1%2C100..900&amp;display=swap);</style><bx:export><bx:file format="svg"/></bx:export></defs><text class="cls-2" style="font-family: Montserrat; font-size: 112.1px; white-space: pre;"><tspan style="letter-spacing: -1.12px;" x="198.221" y="123.018">P</tspan><tspan x="279.031" y="123.018">ostma</tspan><tspan style="letter-spacing: -2.24px;" x="647.411" y="123.018">t</tspan><tspan x="694.261" y="123.018">e</tspan></text><g transform="matrix(0.844409, 0, 0, 0.844409, 20.281845, 18.637194)" style=""><path class="cls-1" d="M46.08,127.33l-21.9-21.9c-3.02-3.02-7.93-3.02-10.95,0s-3.02,7.93,0,10.95l21.9,21.9c3.02,3.02,7.93,3.02,10.95,0,3.02-3.02,3.02-7.93,0-10.95Z" style=""/><path class="cls-1" d="M50.35,8.64c-2.78-.93-5.85-.2-7.92,1.87L2.27,50.67c-3.02,3.02-3.02,7.93,0,10.95l5.47,5.47L62.24,12.6l-11.89-3.96Z" style=""/><path class="cls-1" d="M142.86,101.15l-3.96-11.89-54.49,54.49,5.48,5.47c1.45,1.45,3.42,2.27,5.48,2.27s4.02-.82,5.48-2.27l40.16-40.16c2.07-2.07,2.8-5.14,1.87-7.92Z" style=""/><path class="cls-1" d="M150.5,7.74c-.43-3.53-3.21-6.31-6.74-6.74-.42-.05-10.47-1.27-22.18-.94-17.23.48-28.8,3.9-35.35,10.45l-7.57,7.57h0l-12.25,12.24-36.77,36.77-10.95,10.95,5.48,5.48s0,0,0,0l16.42,16.42,56.59-56.58h0c3.02-3.02,7.93-3.02,10.95,0,.19.19.37.39.53.59.06.08.12.16.18.24.1.13.2.25.28.39.1.15.18.3.27.45.04.07.09.14.12.21.08.16.15.32.22.48.03.07.07.14.1.21.08.19.14.39.21.59.01.04.03.08.04.12.49,1.64.42,3.42-.21,5.03-.02.05-.04.09-.06.14-.05.11-.09.22-.14.33-.03.07-.07.14-.11.21-.04.08-.08.17-.13.25-.05.1-.11.19-.17.28-.03.06-.07.11-.1.17-.06.09-.12.18-.18.26-.04.06-.08.12-.12.17-.06.08-.12.15-.18.23-.05.06-.1.13-.15.19-.06.07-.12.13-.18.19-.06.07-.13.14-.19.21h0s-45.63,45.64-45.63,45.64l-10.95,10.95,16.43,16.43,5.48,5.48,10.95-10.95,7.96-7.96,28.81-28.81h0s12.24-12.24,12.24-12.24h0s7.57-7.57,7.57-7.57c6.55-6.55,9.97-18.12,10.45-35.35.33-11.71-.89-21.76-.94-22.18Z" style=""/></g></svg>